<svg height="6126" width="720" xmlns="http://www.w3.org/2000/svg">
<rect height="6126" fill="#555" width="720"></rect>
<text fill="#7f7" font-family="Courier New" font-size="12" xml:space="preserve">
<tspan x="10" y="26">54 megabytes installed</tspan>
<tspan x="10" y="42"></tspan>
<tspan x="10" y="58">node_modules</tspan>
<tspan x="10" y="74">└─┬ netbeast-cli@0.5.9 </tspan>
<tspan x="10" y="90">  ├─┬ aedes@0.17.1 </tspan>
<tspan x="10" y="106">  │ ├── aedes-packet@1.0.0 </tspan>
<tspan x="10" y="122">  │ ├── aedes-persistence@2.4.0 </tspan>
<tspan x="10" y="138">  │ ├─┬ bulk-write-stream@1.1.3 </tspan>
<tspan x="10" y="154">  │ │ └─┬ readable-stream@2.2.9 </tspan>
<tspan x="10" y="170">  │ │   ├── buffer-shims@1.0.0 </tspan>
<tspan x="10" y="186">  │ │   ├── isarray@1.0.0 </tspan>
<tspan x="10" y="202">  │ │   ├── string_decoder@1.0.0 </tspan>
<tspan x="10" y="218">  │ │   └── util-deprecate@1.0.2 </tspan>
<tspan x="10" y="234">  │ ├─┬ end-of-stream@1.4.0 </tspan>
<tspan x="10" y="250">  │ │ └─┬ once@1.4.0 </tspan>
<tspan x="10" y="266">  │ │   └── wrappy@1.0.2 </tspan>
<tspan x="10" y="282">  │ ├── fastfall@1.5.1 </tspan>
<tspan x="10" y="298">  │ ├── fastparallel@2.3.0 </tspan>
<tspan x="10" y="314">  │ ├── fastseries@1.7.2 </tspan>
<tspan x="10" y="330">  │ ├── from2@2.3.0 </tspan>
<tspan x="10" y="346">  │ ├── mqemitter@2.0.3 </tspan>
<tspan x="10" y="362">  │ ├─┬ mqtt-packet@4.1.2 </tspan>
<tspan x="10" y="378">  │ │ ├── bl@1.2.0 </tspan>
<tspan x="10" y="394">  │ │ └── process-nextick-args@1.0.7 </tspan>
<tspan x="10" y="410">  │ ├── pump@1.0.2 </tspan>
<tspan x="10" y="426">  │ ├── qlobber@0.7.0 </tspan>
<tspan x="10" y="442">  │ ├── retimer@1.0.1 </tspan>
<tspan x="10" y="458">  │ ├── reusify@1.0.1 </tspan>
<tspan x="10" y="474">  │ ├── shortid@2.2.8 </tspan>
<tspan x="10" y="490">  │ ├── through2@2.0.3 </tspan>
<tspan x="10" y="506">  │ ├── uuid@2.0.3 </tspan>
<tspan x="10" y="522">  │ └── xtend@4.0.1 </tspan>
<tspan x="10" y="538">  ├── bluebird@3.5.0 </tspan>
<tspan x="10" y="554">  ├─┬ body-parser@1.17.1 </tspan>
<tspan x="10" y="570">  │ ├── bytes@2.4.0 </tspan>
<tspan x="10" y="586">  │ ├── content-type@1.0.2 </tspan>
<tspan x="10" y="602">  │ ├─┬ debug@2.6.1 </tspan>
<tspan x="10" y="618">  │ │ └── ms@0.7.2 </tspan>
<tspan x="10" y="634">  │ ├── depd@1.1.0 </tspan>
<tspan x="10" y="650">  │ ├── http-errors@1.6.1 </tspan>
<tspan x="10" y="666">  │ ├── iconv-lite@0.4.15 </tspan>
<tspan x="10" y="682">  │ ├─┬ on-finished@2.3.0 </tspan>
<tspan x="10" y="698">  │ │ └── ee-first@1.1.1 </tspan>
<tspan x="10" y="714">  │ ├── qs@6.4.0 </tspan>
<tspan x="10" y="730">  │ ├─┬ raw-body@2.2.0 </tspan>
<tspan x="10" y="746">  │ │ └── unpipe@1.0.0 </tspan>
<tspan x="10" y="762">  │ └─┬ type-is@1.6.15 </tspan>
<tspan x="10" y="778">  │   ├── media-typer@0.3.0 </tspan>
<tspan x="10" y="794">  │   └─┬ mime-types@2.1.15 </tspan>
<tspan x="10" y="810">  │     └── mime-db@1.27.0 </tspan>
<tspan x="10" y="826">  ├─┬ chalk@1.1.3 </tspan>
<tspan x="10" y="842">  │ ├── ansi-styles@2.2.1 </tspan>
<tspan x="10" y="858">  │ ├── escape-string-regexp@1.0.5 </tspan>
<tspan x="10" y="874">  │ ├─┬ has-ansi@2.0.0 </tspan>
<tspan x="10" y="890">  │ │ └── ansi-regex@2.1.1 </tspan>
<tspan x="10" y="906">  │ ├── strip-ansi@3.0.1 </tspan>
<tspan x="10" y="922">  │ └── supports-color@2.0.0 </tspan>
<tspan x="10" y="938">  ├── cli-spinner@0.2.6 </tspan>
<tspan x="10" y="954">  ├─┬ commander@2.9.0 </tspan>
<tspan x="10" y="970">  │ └── graceful-readlink@1.0.1 </tspan>
<tspan x="10" y="986">  ├─┬ cookie-parser@1.4.3 </tspan>
<tspan x="10" y="1002">  │ ├── cookie@0.3.1 </tspan>
<tspan x="10" y="1018">  │ └── cookie-signature@1.0.6 </tspan>
<tspan x="10" y="1034">  ├── dotenv@2.0.0 </tspan>
<tspan x="10" y="1050">  ├─┬ express@4.15.2 </tspan>
<tspan x="10" y="1066">  │ ├─┬ accepts@1.3.3 </tspan>
<tspan x="10" y="1082">  │ │ └── negotiator@0.6.1 </tspan>
<tspan x="10" y="1098">  │ ├── array-flatten@1.1.1 </tspan>
<tspan x="10" y="1114">  │ ├── content-disposition@0.5.2 </tspan>
<tspan x="10" y="1130">  │ ├── encodeurl@1.0.1 </tspan>
<tspan x="10" y="1146">  │ ├── escape-html@1.0.3 </tspan>
<tspan x="10" y="1162">  │ ├── etag@1.8.0 </tspan>
<tspan x="10" y="1178">  │ ├─┬ finalhandler@1.0.1 </tspan>
<tspan x="10" y="1194">  │ │ └── debug@2.6.3 </tspan>
<tspan x="10" y="1210">  │ ├── fresh@0.5.0 </tspan>
<tspan x="10" y="1226">  │ ├── merge-descriptors@1.0.1 </tspan>
<tspan x="10" y="1242">  │ ├── methods@1.1.2 </tspan>
<tspan x="10" y="1258">  │ ├── parseurl@1.3.1 </tspan>
<tspan x="10" y="1274">  │ ├── path-to-regexp@0.1.7 </tspan>
<tspan x="10" y="1290">  │ ├─┬ proxy-addr@1.1.4 </tspan>
<tspan x="10" y="1306">  │ │ ├── forwarded@0.1.0 </tspan>
<tspan x="10" y="1322">  │ │ └── ipaddr.js@1.3.0 </tspan>
<tspan x="10" y="1338">  │ ├── range-parser@1.2.0 </tspan>
<tspan x="10" y="1354">  │ ├─┬ send@0.15.1 </tspan>
<tspan x="10" y="1370">  │ │ └── destroy@1.0.4 </tspan>
<tspan x="10" y="1386">  │ ├── serve-static@1.12.1 </tspan>
<tspan x="10" y="1402">  │ ├── setprototypeof@1.0.3 </tspan>
<tspan x="10" y="1418">  │ ├── statuses@1.3.1 </tspan>
<tspan x="10" y="1434">  │ ├── utils-merge@1.0.0 </tspan>
<tspan x="10" y="1450">  │ └── vary@1.1.1 </tspan>
<tspan x="10" y="1466">  ├── freeport@1.0.5 </tspan>
<tspan x="10" y="1482">  ├─┬ fs-extra@0.26.7 </tspan>
<tspan x="10" y="1498">  │ ├── graceful-fs@4.1.11 </tspan>
<tspan x="10" y="1514">  │ ├── jsonfile@2.4.0 </tspan>
<tspan x="10" y="1530">  │ ├── klaw@1.3.1 </tspan>
<tspan x="10" y="1546">  │ ├── path-is-absolute@1.0.1 </tspan>
<tspan x="10" y="1562">  │ └─┬ rimraf@2.6.1 </tspan>
<tspan x="10" y="1578">  │   └─┬ glob@7.1.1 </tspan>
<tspan x="10" y="1594">  │     ├── fs.realpath@1.0.0 </tspan>
<tspan x="10" y="1610">  │     └── inflight@1.0.6 </tspan>
<tspan x="10" y="1626">  ├─┬ fstream@1.0.11 </tspan>
<tspan x="10" y="1642">  │ ├── inherits@2.0.3 </tspan>
<tspan x="10" y="1658">  │ └─┬ mkdirp@0.5.1 </tspan>
<tspan x="10" y="1674">  │   └── minimist@0.0.8 </tspan>
<tspan x="10" y="1690">  ├─┬ fstream-ignore@1.0.5 </tspan>
<tspan x="10" y="1706">  │ └─┬ minimatch@3.0.3 </tspan>
<tspan x="10" y="1722">  │   └─┬ brace-expansion@1.1.7 </tspan>
<tspan x="10" y="1738">  │     ├── balanced-match@0.4.2 </tspan>
<tspan x="10" y="1754">  │     └── concat-map@0.0.1 </tspan>
<tspan x="10" y="1770">  ├─┬ getmac@1.2.1 </tspan>
<tspan x="10" y="1786">  │ └─┬ extract-opts@3.3.1 </tspan>
<tspan x="10" y="1802">  │   ├── eachr@3.2.0 </tspan>
<tspan x="10" y="1818">  │   ├── editions@1.3.3 </tspan>
<tspan x="10" y="1834">  │   └── typechecker@4.4.1 </tspan>
<tspan x="10" y="1850">  ├─┬ gift@0.6.1 </tspan>
<tspan x="10" y="1866">  │ └── underscore@1.8.3 </tspan>
<tspan x="10" y="1882">  ├─┬ http-proxy@1.16.2 </tspan>
<tspan x="10" y="1898">  │ ├── eventemitter3@1.2.0 </tspan>
<tspan x="10" y="1914">  │ └── requires-port@1.0.0 </tspan>
<tspan x="10" y="1930">  ├─┬ inquirer@1.2.3 </tspan>
<tspan x="10" y="1946">  │ ├── ansi-escapes@1.4.0 </tspan>
<tspan x="10" y="1962">  │ ├─┬ cli-cursor@1.0.2 </tspan>
<tspan x="10" y="1978">  │ │ └─┬ restore-cursor@1.0.1 </tspan>
<tspan x="10" y="1994">  │ │   ├── exit-hook@1.1.1 </tspan>
<tspan x="10" y="2010">  │ │   └── onetime@1.1.0 </tspan>
<tspan x="10" y="2026">  │ ├── cli-width@2.1.0 </tspan>
<tspan x="10" y="2042">  │ ├─┬ external-editor@1.1.1 </tspan>
<tspan x="10" y="2058">  │ │ ├─┬ spawn-sync@1.0.15 </tspan>
<tspan x="10" y="2074">  │ │ │ └── os-shim@0.1.3 </tspan>
<tspan x="10" y="2090">  │ │ └─┬ tmp@0.0.29 </tspan>
<tspan x="10" y="2106">  │ │   └── os-tmpdir@1.0.2 </tspan>
<tspan x="10" y="2122">  │ ├─┬ figures@1.7.0 </tspan>
<tspan x="10" y="2138">  │ │ └── object-assign@4.1.1 </tspan>
<tspan x="10" y="2154">  │ ├── mute-stream@0.0.6 </tspan>
<tspan x="10" y="2170">  │ ├─┬ pinkie-promise@2.0.1 </tspan>
<tspan x="10" y="2186">  │ │ └── pinkie@2.0.4 </tspan>
<tspan x="10" y="2202">  │ ├─┬ run-async@2.3.0 </tspan>
<tspan x="10" y="2218">  │ │ └── is-promise@2.1.0 </tspan>
<tspan x="10" y="2234">  │ ├── rx@4.1.0 </tspan>
<tspan x="10" y="2250">  │ ├─┬ string-width@1.0.2 </tspan>
<tspan x="10" y="2266">  │ │ ├── code-point-at@1.1.0 </tspan>
<tspan x="10" y="2282">  │ │ └─┬ is-fullwidth-code-point@1.0.0 </tspan>
<tspan x="10" y="2298">  │ │   └── number-is-nan@1.0.1 </tspan>
<tspan x="10" y="2314">  │ └── through@2.3.8 </tspan>
<tspan x="10" y="2330">  ├── lodash@4.17.4 </tspan>
<tspan x="10" y="2346">  ├── mixpanel@0.4.1 </tspan>
<tspan x="10" y="2362">  ├─┬ morgan@1.8.1 </tspan>
<tspan x="10" y="2378">  │ ├── basic-auth@1.1.0 </tspan>
<tspan x="10" y="2394">  │ └── on-headers@1.0.1 </tspan>
<tspan x="10" y="2410">  ├─┬ mqtt@1.14.1 </tspan>
<tspan x="10" y="2426">  │ ├─┬ commist@1.0.0 </tspan>
<tspan x="10" y="2442">  │ │ ├── leven@1.0.2 </tspan>
<tspan x="10" y="2458">  │ │ └── minimist@1.2.0 </tspan>
<tspan x="10" y="2474">  │ ├─┬ concat-stream@1.6.0 </tspan>
<tspan x="10" y="2490">  │ │ └── typedarray@0.0.6 </tspan>
<tspan x="10" y="2506">  │ ├─┬ help-me@1.1.0 </tspan>
<tspan x="10" y="2522">  │ │ ├── callback-stream@1.1.0 </tspan>
<tspan x="10" y="2538">  │ │ └─┬ glob-stream@6.1.0 </tspan>
<tspan x="10" y="2554">  │ │   ├─┬ glob-parent@3.1.0 </tspan>
<tspan x="10" y="2570">  │ │   │ ├─┬ is-glob@3.1.0 </tspan>
<tspan x="10" y="2586">  │ │   │ │ └── is-extglob@2.1.1 </tspan>
<tspan x="10" y="2602">  │ │   │ └── path-dirname@1.0.2 </tspan>
<tspan x="10" y="2618">  │ │   ├── is-negated-glob@1.0.0 </tspan>
<tspan x="10" y="2634">  │ │   ├─┬ ordered-read-streams@1.0.0 </tspan>
<tspan x="10" y="2650">  │ │   │ └── is-stream@1.1.0 </tspan>
<tspan x="10" y="2666">  │ │   ├── pumpify@1.3.5 </tspan>
<tspan x="10" y="2682">  │ │   ├── remove-trailing-separator@1.0.1 </tspan>
<tspan x="10" y="2698">  │ │   ├─┬ to-absolute-glob@2.0.1 </tspan>
<tspan x="10" y="2714">  │ │   │ ├─┬ extend-shallow@2.0.1 </tspan>
<tspan x="10" y="2730">  │ │   │ │ └── is-extendable@0.1.1 </tspan>
<tspan x="10" y="2746">  │ │   │ └─┬ is-absolute@0.2.6 </tspan>
<tspan x="10" y="2762">  │ │   │   ├─┬ is-relative@0.2.1 </tspan>
<tspan x="10" y="2778">  │ │   │   │ └─┬ is-unc-path@0.1.2 </tspan>
<tspan x="10" y="2794">  │ │   │   │   └── unc-path-regex@0.1.2 </tspan>
<tspan x="10" y="2810">  │ │   │   └── is-windows@0.2.0 </tspan>
<tspan x="10" y="2826">  │ │   └─┬ unique-stream@2.2.1 </tspan>
<tspan x="10" y="2842">  │ │     ├─┬ json-stable-stringify@1.0.1 </tspan>
<tspan x="10" y="2858">  │ │     │ └── jsonify@0.0.0 </tspan>
<tspan x="10" y="2874">  │ │     └── through2-filter@2.0.0 </tspan>
<tspan x="10" y="2890">  │ ├── minimist@1.2.0 </tspan>
<tspan x="10" y="2906">  │ ├─┬ mqtt-connection@2.1.1 </tspan>
<tspan x="10" y="2922">  │ │ ├─┬ mqtt-packet@3.4.8 </tspan>
<tspan x="10" y="2938">  │ │ │ └── bl@0.9.5 </tspan>
<tspan x="10" y="2954">  │ │ ├─┬ reduplexer@1.1.0 </tspan>
<tspan x="10" y="2970">  │ │ │ └─┬ readable-stream@1.0.34 </tspan>
<tspan x="10" y="2986">  │ │ │   ├── isarray@0.0.1 </tspan>
<tspan x="10" y="3002">  │ │ │   └── string_decoder@0.10.31 </tspan>
<tspan x="10" y="3018">  │ │ └─┬ through2@0.6.5 </tspan>
<tspan x="10" y="3034">  │ │   └─┬ readable-stream@1.0.34 </tspan>
<tspan x="10" y="3050">  │ │     ├── isarray@0.0.1 </tspan>
<tspan x="10" y="3066">  │ │     └── string_decoder@0.10.31 </tspan>
<tspan x="10" y="3082">  │ ├─┬ mqtt-packet@3.4.8 </tspan>
<tspan x="10" y="3098">  │ │ └── bl@0.9.5 </tspan>
<tspan x="10" y="3114">  │ ├─┬ readable-stream@1.0.34 </tspan>
<tspan x="10" y="3130">  │ │ ├── core-util-is@1.0.2 </tspan>
<tspan x="10" y="3146">  │ │ ├── isarray@0.0.1 </tspan>
<tspan x="10" y="3162">  │ │ └── string_decoder@0.10.31 </tspan>
<tspan x="10" y="3178">  │ ├── reinterval@1.1.0 </tspan>
<tspan x="10" y="3194">  │ └── split2@2.1.1 </tspan>
<tspan x="10" y="3210">  ├─┬ multer@1.3.0 </tspan>
<tspan x="10" y="3226">  │ ├── append-field@0.1.0 </tspan>
<tspan x="10" y="3242">  │ ├─┬ busboy@0.2.14 </tspan>
<tspan x="10" y="3258">  │ │ ├─┬ dicer@0.2.5 </tspan>
<tspan x="10" y="3274">  │ │ │ ├─┬ readable-stream@1.1.14 </tspan>
<tspan x="10" y="3290">  │ │ │ │ ├── isarray@0.0.1 </tspan>
<tspan x="10" y="3306">  │ │ │ │ └── string_decoder@0.10.31 </tspan>
<tspan x="10" y="3322">  │ │ │ └── streamsearch@0.1.2 </tspan>
<tspan x="10" y="3338">  │ │ └─┬ readable-stream@1.1.14 </tspan>
<tspan x="10" y="3354">  │ │   ├── isarray@0.0.1 </tspan>
<tspan x="10" y="3370">  │ │   └── string_decoder@0.10.31 </tspan>
<tspan x="10" y="3386">  │ └── object-assign@3.0.0 </tspan>
<tspan x="10" y="3402">  ├── netbeast@1.1.0 </tspan>
<tspan x="10" y="3418">  ├─┬ serve-favicon@2.4.2 </tspan>
<tspan x="10" y="3434">  │ └── ms@1.0.0 </tspan>
<tspan x="10" y="3450">  ├─┬ sqlite3@3.1.8 </tspan>
<tspan x="10" y="3466">  │ ├── nan@2.4.0 </tspan>
<tspan x="10" y="3482">  │ └─┬ node-pre-gyp@0.6.31 </tspan>
<tspan x="10" y="3498">  │   ├─┬ mkdirp@0.5.1 </tspan>
<tspan x="10" y="3514">  │   │ └── minimist@0.0.8 </tspan>
<tspan x="10" y="3530">  │   ├─┬ nopt@3.0.6 </tspan>
<tspan x="10" y="3546">  │   │ └── abbrev@1.0.9 </tspan>
<tspan x="10" y="3562">  │   ├─┬ npmlog@4.0.0 </tspan>
<tspan x="10" y="3578">  │   │ ├─┬ are-we-there-yet@1.1.2 </tspan>
<tspan x="10" y="3594">  │   │ │ ├── delegates@1.0.0 </tspan>
<tspan x="10" y="3610">  │   │ │ └─┬ readable-stream@2.1.5 </tspan>
<tspan x="10" y="3626">  │   │ │   ├── buffer-shims@1.0.0 </tspan>
<tspan x="10" y="3642">  │   │ │   ├── core-util-is@1.0.2 </tspan>
<tspan x="10" y="3658">  │   │ │   ├── inherits@2.0.3 </tspan>
<tspan x="10" y="3674">  │   │ │   ├── isarray@1.0.0 </tspan>
<tspan x="10" y="3690">  │   │ │   ├── process-nextick-args@1.0.7 </tspan>
<tspan x="10" y="3706">  │   │ │   ├── string_decoder@0.10.31 </tspan>
<tspan x="10" y="3722">  │   │ │   └── util-deprecate@1.0.2 </tspan>
<tspan x="10" y="3738">  │   │ ├── console-control-strings@1.1.0 </tspan>
<tspan x="10" y="3754">  │   │ ├─┬ gauge@2.6.0 </tspan>
<tspan x="10" y="3770">  │   │ │ ├── aproba@1.0.4 </tspan>
<tspan x="10" y="3786">  │   │ │ ├── has-color@0.1.7 </tspan>
<tspan x="10" y="3802">  │   │ │ ├── has-unicode@2.0.1 </tspan>
<tspan x="10" y="3818">  │   │ │ ├── object-assign@4.1.0 </tspan>
<tspan x="10" y="3834">  │   │ │ ├── signal-exit@3.0.1 </tspan>
<tspan x="10" y="3850">  │   │ │ ├─┬ string-width@1.0.2 </tspan>
<tspan x="10" y="3866">  │   │ │ │ ├─┬ code-point-at@1.0.1 </tspan>
<tspan x="10" y="3882">  │   │ │ │ │ └── number-is-nan@1.0.1 </tspan>
<tspan x="10" y="3898">  │   │ │ │ └─┬ is-fullwidth-code-point@1.0.0 </tspan>
<tspan x="10" y="3914">  │   │ │ │   └── number-is-nan@1.0.1 </tspan>
<tspan x="10" y="3930">  │   │ │ ├─┬ strip-ansi@3.0.1 </tspan>
<tspan x="10" y="3946">  │   │ │ │ └── ansi-regex@2.0.0 </tspan>
<tspan x="10" y="3962">  │   │ │ └── wide-align@1.1.0 </tspan>
<tspan x="10" y="3978">  │   │ └── set-blocking@2.0.0 </tspan>
<tspan x="10" y="3994">  │   ├─┬ rc@1.1.6 </tspan>
<tspan x="10" y="4010">  │   │ ├── deep-extend@0.4.1 </tspan>
<tspan x="10" y="4026">  │   │ ├── ini@1.3.4 </tspan>
<tspan x="10" y="4042">  │   │ ├── minimist@1.2.0 </tspan>
<tspan x="10" y="4058">  │   │ └── strip-json-comments@1.0.4 </tspan>
<tspan x="10" y="4074">  │   ├─┬ request@2.76.0 </tspan>
<tspan x="10" y="4090">  │   │ ├── aws-sign2@0.6.0 </tspan>
<tspan x="10" y="4106">  │   │ ├── aws4@1.5.0 </tspan>
<tspan x="10" y="4122">  │   │ ├── caseless@0.11.0 </tspan>
<tspan x="10" y="4138">  │   │ ├─┬ combined-stream@1.0.5 </tspan>
<tspan x="10" y="4154">  │   │ │ └── delayed-stream@1.0.0 </tspan>
<tspan x="10" y="4170">  │   │ ├── extend@3.0.0 </tspan>
<tspan x="10" y="4186">  │   │ ├── forever-agent@0.6.1 </tspan>
<tspan x="10" y="4202">  │   │ ├─┬ form-data@2.1.1 </tspan>
<tspan x="10" y="4218">  │   │ │ └── asynckit@0.4.0 </tspan>
<tspan x="10" y="4234">  │   │ ├─┬ har-validator@2.0.6 </tspan>
<tspan x="10" y="4250">  │   │ │ ├─┬ chalk@1.1.3 </tspan>
<tspan x="10" y="4266">  │   │ │ │ ├── ansi-styles@2.2.1 </tspan>
<tspan x="10" y="4282">  │   │ │ │ ├── escape-string-regexp@1.0.5 </tspan>
<tspan x="10" y="4298">  │   │ │ │ ├─┬ has-ansi@2.0.0 </tspan>
<tspan x="10" y="4314">  │   │ │ │ │ └── ansi-regex@2.0.0 </tspan>
<tspan x="10" y="4330">  │   │ │ │ ├─┬ strip-ansi@3.0.1 </tspan>
<tspan x="10" y="4346">  │   │ │ │ │ └── ansi-regex@2.0.0 </tspan>
<tspan x="10" y="4362">  │   │ │ │ └── supports-color@2.0.0 </tspan>
<tspan x="10" y="4378">  │   │ │ ├─┬ commander@2.9.0 </tspan>
<tspan x="10" y="4394">  │   │ │ │ └── graceful-readlink@1.0.1 </tspan>
<tspan x="10" y="4410">  │   │ │ ├─┬ is-my-json-valid@2.15.0 </tspan>
<tspan x="10" y="4426">  │   │ │ │ ├── generate-function@2.0.0 </tspan>
<tspan x="10" y="4442">  │   │ │ │ ├─┬ generate-object-property@1.2.0 </tspan>
<tspan x="10" y="4458">  │   │ │ │ │ └── is-property@1.0.2 </tspan>
<tspan x="10" y="4474">  │   │ │ │ ├── jsonpointer@4.0.0 </tspan>
<tspan x="10" y="4490">  │   │ │ │ └── xtend@4.0.1 </tspan>
<tspan x="10" y="4506">  │   │ │ └─┬ pinkie-promise@2.0.1 </tspan>
<tspan x="10" y="4522">  │   │ │   └── pinkie@2.0.4 </tspan>
<tspan x="10" y="4538">  │   │ ├─┬ hawk@3.1.3 </tspan>
<tspan x="10" y="4554">  │   │ │ ├── boom@2.10.1 </tspan>
<tspan x="10" y="4570">  │   │ │ ├── cryptiles@2.0.5 </tspan>
<tspan x="10" y="4586">  │   │ │ ├── hoek@2.16.3 </tspan>
<tspan x="10" y="4602">  │   │ │ └── sntp@1.0.9 </tspan>
<tspan x="10" y="4618">  │   │ ├─┬ http-signature@1.1.1 </tspan>
<tspan x="10" y="4634">  │   │ │ ├── assert-plus@0.2.0 </tspan>
<tspan x="10" y="4650">  │   │ │ ├─┬ jsprim@1.3.1 </tspan>
<tspan x="10" y="4666">  │   │ │ │ ├── extsprintf@1.0.2 </tspan>
<tspan x="10" y="4682">  │   │ │ │ ├── json-schema@0.2.3 </tspan>
<tspan x="10" y="4698">  │   │ │ │ └── verror@1.3.6 </tspan>
<tspan x="10" y="4714">  │   │ │ └─┬ sshpk@1.10.1 </tspan>
<tspan x="10" y="4730">  │   │ │   ├── asn1@0.2.3 </tspan>
<tspan x="10" y="4746">  │   │ │   ├── assert-plus@1.0.0 </tspan>
<tspan x="10" y="4762">  │   │ │   ├── bcrypt-pbkdf@1.0.0 </tspan>
<tspan x="10" y="4778">  │   │ │   ├── dashdash@1.14.0 </tspan>
<tspan x="10" y="4794">  │   │ │   ├── ecc-jsbn@0.1.1 </tspan>
<tspan x="10" y="4810">  │   │ │   ├── getpass@0.1.6 </tspan>
<tspan x="10" y="4826">  │   │ │   ├── jodid25519@1.0.2 </tspan>
<tspan x="10" y="4842">  │   │ │   ├── jsbn@0.1.0 </tspan>
<tspan x="10" y="4858">  │   │ │   └── tweetnacl@0.14.3 </tspan>
<tspan x="10" y="4874">  │   │ ├── is-typedarray@1.0.0 </tspan>
<tspan x="10" y="4890">  │   │ ├── isstream@0.1.2 </tspan>
<tspan x="10" y="4906">  │   │ ├── json-stringify-safe@5.0.1 </tspan>
<tspan x="10" y="4922">  │   │ ├─┬ mime-types@2.1.12 </tspan>
<tspan x="10" y="4938">  │   │ │ └── mime-db@1.24.0 </tspan>
<tspan x="10" y="4954">  │   │ ├── node-uuid@1.4.7 </tspan>
<tspan x="10" y="4970">  │   │ ├── oauth-sign@0.8.2 </tspan>
<tspan x="10" y="4986">  │   │ ├── qs@6.3.0 </tspan>
<tspan x="10" y="5002">  │   │ ├── stringstream@0.0.5 </tspan>
<tspan x="10" y="5018">  │   │ ├─┬ tough-cookie@2.3.2 </tspan>
<tspan x="10" y="5034">  │   │ │ └── punycode@1.4.1 </tspan>
<tspan x="10" y="5050">  │   │ └── tunnel-agent@0.4.3 </tspan>
<tspan x="10" y="5066">  │   ├─┬ rimraf@2.5.4 </tspan>
<tspan x="10" y="5082">  │   │ └─┬ glob@7.1.1 </tspan>
<tspan x="10" y="5098">  │   │   ├── fs.realpath@1.0.0 </tspan>
<tspan x="10" y="5114">  │   │   ├─┬ inflight@1.0.6 </tspan>
<tspan x="10" y="5130">  │   │   │ └── wrappy@1.0.2 </tspan>
<tspan x="10" y="5146">  │   │   ├── inherits@2.0.3 </tspan>
<tspan x="10" y="5162">  │   │   ├─┬ minimatch@3.0.3 </tspan>
<tspan x="10" y="5178">  │   │   │ └─┬ brace-expansion@1.1.6 </tspan>
<tspan x="10" y="5194">  │   │   │   ├── balanced-match@0.4.2 </tspan>
<tspan x="10" y="5210">  │   │   │   └── concat-map@0.0.1 </tspan>
<tspan x="10" y="5226">  │   │   ├─┬ once@1.4.0 </tspan>
<tspan x="10" y="5242">  │   │   │ └── wrappy@1.0.2 </tspan>
<tspan x="10" y="5258">  │   │   └── path-is-absolute@1.0.1 </tspan>
<tspan x="10" y="5274">  │   ├── semver@5.3.0 </tspan>
<tspan x="10" y="5290">  │   ├─┬ tar@2.2.1 </tspan>
<tspan x="10" y="5306">  │   │ ├── block-stream@0.0.9 </tspan>
<tspan x="10" y="5322">  │   │ ├─┬ fstream@1.0.10 </tspan>
<tspan x="10" y="5338">  │   │ │ └── graceful-fs@4.1.9 </tspan>
<tspan x="10" y="5354">  │   │ └── inherits@2.0.3 </tspan>
<tspan x="10" y="5370">  │   └─┬ tar-pack@3.3.0 </tspan>
<tspan x="10" y="5386">  │     ├─┬ debug@2.2.0 </tspan>
<tspan x="10" y="5402">  │     │ └── ms@0.7.1 </tspan>
<tspan x="10" y="5418">  │     ├─┬ fstream@1.0.10 </tspan>
<tspan x="10" y="5434">  │     │ ├── graceful-fs@4.1.9 </tspan>
<tspan x="10" y="5450">  │     │ └── inherits@2.0.3 </tspan>
<tspan x="10" y="5466">  │     ├─┬ fstream-ignore@1.0.5 </tspan>
<tspan x="10" y="5482">  │     │ ├── inherits@2.0.3 </tspan>
<tspan x="10" y="5498">  │     │ └─┬ minimatch@3.0.3 </tspan>
<tspan x="10" y="5514">  │     │   └─┬ brace-expansion@1.1.6 </tspan>
<tspan x="10" y="5530">  │     │     ├── balanced-match@0.4.2 </tspan>
<tspan x="10" y="5546">  │     │     └── concat-map@0.0.1 </tspan>
<tspan x="10" y="5562">  │     ├─┬ once@1.3.3 </tspan>
<tspan x="10" y="5578">  │     │ └── wrappy@1.0.2 </tspan>
<tspan x="10" y="5594">  │     ├─┬ readable-stream@2.1.5 </tspan>
<tspan x="10" y="5610">  │     │ ├── buffer-shims@1.0.0 </tspan>
<tspan x="10" y="5626">  │     │ ├── core-util-is@1.0.2 </tspan>
<tspan x="10" y="5642">  │     │ ├── inherits@2.0.3 </tspan>
<tspan x="10" y="5658">  │     │ ├── isarray@1.0.0 </tspan>
<tspan x="10" y="5674">  │     │ ├── process-nextick-args@1.0.7 </tspan>
<tspan x="10" y="5690">  │     │ ├── string_decoder@0.10.31 </tspan>
<tspan x="10" y="5706">  │     │ └── util-deprecate@1.0.2 </tspan>
<tspan x="10" y="5722">  │     └── uid-number@0.0.6 </tspan>
<tspan x="10" y="5738">  ├─┬ superagent@1.8.5 </tspan>
<tspan x="10" y="5754">  │ ├── component-emitter@1.2.1 </tspan>
<tspan x="10" y="5770">  │ ├── cookiejar@2.0.6 </tspan>
<tspan x="10" y="5786">  │ ├── extend@3.0.0 </tspan>
<tspan x="10" y="5802">  │ ├─┬ form-data@1.0.0-rc3 </tspan>
<tspan x="10" y="5818">  │ │ ├── async@1.5.2 </tspan>
<tspan x="10" y="5834">  │ │ └─┬ combined-stream@1.0.5 </tspan>
<tspan x="10" y="5850">  │ │   └── delayed-stream@1.0.0 </tspan>
<tspan x="10" y="5866">  │ ├── formidable@1.0.17 </tspan>
<tspan x="10" y="5882">  │ ├── mime@1.3.4 </tspan>
<tspan x="10" y="5898">  │ ├── qs@2.3.3 </tspan>
<tspan x="10" y="5914">  │ ├─┬ readable-stream@1.0.27-1 </tspan>
<tspan x="10" y="5930">  │ │ ├── isarray@0.0.1 </tspan>
<tspan x="10" y="5946">  │ │ └── string_decoder@0.10.31 </tspan>
<tspan x="10" y="5962">  │ └── reduce-component@1.0.1 </tspan>
<tspan x="10" y="5978">  ├── superagent-bluebird-promise@3.0.2 </tspan>
<tspan x="10" y="5994">  └─┬ websocket-stream@3.3.3 </tspan>
<tspan x="10" y="6010">    ├─┬ duplexify@3.5.0 </tspan>
<tspan x="10" y="6026">    │ ├─┬ end-of-stream@1.0.0 </tspan>
<tspan x="10" y="6042">    │ │ └── once@1.3.3 </tspan>
<tspan x="10" y="6058">    │ └── stream-shift@1.0.0 </tspan>
<tspan x="10" y="6074">    └─┬ ws@1.1.4 </tspan>
<tspan x="10" y="6090">      ├── options@0.0.6 </tspan>
<tspan x="10" y="6106">      └── ultron@1.0.2</tspan>
</text>
</svg>
